<?xml version="1.0" encoding="UTF-8" standalone="no"?>
<!-- Created with Inkscape (http://www.inkscape.org/) -->

<svg
   xmlns:dc="http://purl.org/dc/elements/1.1/"
   xmlns:cc="http://creativecommons.org/ns#"
   xmlns:rdf="http://www.w3.org/1999/02/22-rdf-syntax-ns#"
   xmlns:svg="http://www.w3.org/2000/svg"
   xmlns="http://www.w3.org/2000/svg"
   xmlns:sodipodi="http://sodipodi.sourceforge.net/DTD/sodipodi-0.dtd"
   xmlns:inkscape="http://www.inkscape.org/namespaces/inkscape"
   width="480"
   height="160"
   id="svg2987"
   version="1.1"
   inkscape:version="0.48.4 r9939"
   sodipodi:docname="logo.svg"
   inkscape:export-filename="/home/abie/Projects/organizzy/Organizzy/web/images/logo.png"
   inkscape:export-xdpi="135"
   inkscape:export-ydpi="135">
  <defs
     id="defs2989" />
  <sodipodi:namedview
     id="base"
     pagecolor="#ffffff"
     bordercolor="#666666"
     borderopacity="1.0"
     inkscape:pageopacity="0.0"
     inkscape:pageshadow="2"
     inkscape:zoom="1.979899"
     inkscape:cx="313.03523"
     inkscape:cy="141.97421"
     inkscape:document-units="px"
     inkscape:current-layer="layer1"
     showgrid="false"
     inkscape:window-width="1366"
     inkscape:window-height="718"
     inkscape:window-x="0"
     inkscape:window-y="26"
     inkscape:window-maximized="1" />
  <metadata
     id="metadata2992">
    <rdf:RDF>
      <cc:Work
         rdf:about="">
        <dc:format>image/svg+xml</dc:format>
        <dc:type
           rdf:resource="http://purl.org/dc/dcmitype/StillImage" />
        <dc:title></dc:title>
      </cc:Work>
    </rdf:RDF>
  </metadata>
  <g
     inkscape:label="Layer 1"
     inkscape:groupmode="layer"
     id="layer1"
     transform="translate(0,-892.36218)">
    <g
       transform="scale(0.99568461,1.0043341)"
       style="font-size:117.59534453999999926px;font-style:normal;font-variant:normal;font-weight:normal;font-stretch:normal;text-align:center;line-height:125%;letter-spacing:0px;word-spacing:0px;text-anchor:middle;fill:#ffffff;fill-opacity:1;stroke:none;font-family:Pacifico;-inkscape-font-specification:Pacifico"
       id="text2983">
      <path
         d="m 39.106271,1004.7724 c -5.703718,0 -10.852337,-1.1675 -15.445873,-3.5026 -4.555311,-2.33504 -8.4407,-5.58881 -11.656179,-9.7613 -3.2155104,-4.21077 -5.6845508,-9.20627 -7.407129,-14.98652 -1.7225945,-5.81849 -2.5838876,-12.19206 -2.5838821,-19.12072 -5.5e-6,-3.67482 0.2679524,-7.44537 0.8038744,-11.31167 0.5359094,-3.8662 1.3397831,-7.71331 2.4116233,-11.54134 1.1101025,-3.86619 2.4690317,-7.63674 4.0767917,-11.31166 1.6460137,-3.71306 3.5408587,-7.21565 5.6845407,-10.50778 2.181924,-3.29198 4.612685,-6.31607 7.292289,-9.0723 2.679553,-2.79433 5.62709,-5.18681 8.842619,-7.17745 3.25374,-2.02873 6.737192,-3.5982 10.450368,-4.70841 3.751365,-1.14829 7.770733,-1.72248 12.058116,-1.72259 5.741897,1.1e-4 10.871377,1.03366 15.388453,3.10066 4.555212,2.06721 8.383181,4.95732 11.483921,8.67036 3.138851,3.71322 5.531332,8.15367 7.17745,13.32135 1.684215,5.12956 2.526369,10.79495 2.526462,16.9962 -9.3e-5,5.12954 -0.516869,10.4887 -1.550329,16.07749 -0.995364,5.5506 -2.469133,11.0246 -4.421309,16.42201 -1.952353,5.35918 -4.383113,10.46952 -7.29229,15.33103 -2.909337,4.86153 -6.258811,9.12972 -10.04843,12.80457 -3.78976,3.67485 -8.019667,6.58411 -12.689732,8.72777 -4.631901,2.1819 -9.665681,3.2729 -15.101355,3.2729 m 1.37807,-14.01036 c 3.062332,1e-5 5.914169,-0.59333 8.555521,-1.78 2.641246,-1.18667 5.052867,-2.81356 7.23487,-4.88067 2.220162,-2.06709 4.229846,-4.47871 6.029058,-7.23487 1.837359,-2.7944 3.464247,-5.78022 4.880666,-8.95746 1.416278,-3.17719 2.641228,-6.46924 3.674854,-9.87617 1.071758,-3.40686 1.952191,-6.77547 2.641302,-10.10585 0.688958,-3.33029 1.186594,-6.52664 1.49291,-9.58907 0.344439,-3.1006 0.516697,-5.91416 0.516776,-8.44068 -7.9e-5,-3.67479 -0.402016,-7.11996 -1.205811,-10.33553 -0.803952,-3.2537 -2.028902,-6.06726 -3.674855,-8.44068 -1.607821,-2.41154 -3.655785,-4.30639 -6.143897,-5.68454 -2.449969,-1.37798 -5.320946,-2.06702 -8.612941,-2.06711 -3.521791,9e-5 -6.928684,0.86138 -10.220689,2.58388 -3.292103,1.6844 -6.392758,3.98118 -9.301975,6.89035 -2.909297,2.87106 -5.569736,6.22054 -7.981325,10.04844 -2.411653,3.78976 -4.478756,7.78998 -6.201317,12.00069 -1.722612,4.21083 -3.062401,8.49815 -4.019372,12.86199 -0.957014,4.36393 -1.43551,8.53642 -1.43549,12.51748 -2e-5,4.32564 0.535895,8.36414 1.607749,12.11553 1.110089,3.71315 2.679557,6.92865 4.708407,9.64649 2.067077,2.71788 4.555257,4.86154 7.464548,6.431 2.947503,1.53119 6.277837,2.29679 9.991011,2.29678"
         style="fill:#ffffff"
         id="path2993" />
      <path
         d="m 96.640712,981.74717 c -7e-6,-1.6843 0.09569,-3.63656 0.287098,-5.8568 0.191391,-2.25849 0.440209,-4.63183 0.746455,-7.12003 0.344509,-2.48816 0.727306,-5.01462 1.148392,-7.57939 0.459347,-2.60299 1.033542,-5.35913 1.722593,-8.26842 0.68902,-2.9475 1.28235,-5.3974 1.78,-7.34971 0.49763,-1.95222 0.99526,-3.55997 1.49291,-4.82325 0.30623,-0.8421 0.61246,-1.51199 0.91872,-2.00968 0.30622,-0.49759 0.65074,-0.88038 1.03355,-1.1484 0.42106,-0.30618 0.9187,-0.49758 1.49291,-0.57419 0.61246,-0.11479 1.35891,-0.1722 2.23936,-0.17226 0.99526,6e-5 1.76085,0.0575 2.29679,0.17226 0.57417,0.0766 0.99525,0.30629 1.26323,0.68903 0.26793,0.34458 0.42105,0.86135 0.45936,1.55033 0.0765,0.68909 0.11481,1.62694 0.11483,2.81356 -2e-5,1.4164 -0.0957,3.42609 -0.28709,6.02906 -0.19143,2.60307 -0.24885,4.88071 -0.17226,6.83293 l 0.63161,0 c 0.76557,-1.53115 1.72257,-3.54083 2.87098,-6.02906 1.14837,-2.48813 2.35418,-4.55523 3.61744,-6.20131 1.2632,-1.64598 2.69869,-3.02405 4.30647,-4.13421 1.60771,-1.14834 3.46428,-1.72253 5.5697,-1.72259 0.72727,6e-5 1.43545,0.13403 2.12453,0.40194 0.68899,0.22973 1.28232,0.57425 1.78,1.03355 0.53587,0.45941 0.95695,1.03361 1.26323,1.72259 0.3062,0.65081 0.45931,1.39726 0.45936,2.23936 -5e-5,0.65081 -0.0957,1.56952 -0.2871,2.75614 -0.19144,1.14844 -0.49768,2.66049 -0.91871,4.53615 -0.42112,1.87575 -0.72736,3.42608 -0.91871,4.65099 -0.19145,1.18671 -0.28715,2.18198 -0.2871,2.98582 -5e-5,1.3781 0.13393,2.52649 0.40193,3.44517 0.26792,0.91875 0.61244,1.6652 1.03356,2.23937 0.45931,0.53594 0.95694,0.91874 1.49291,1.14839 0.57415,0.22971 1.16748,0.34455 1.78,0.34452 1.72254,3e-5 3.50255,-0.38277 5.34003,-1.14839 1.83737,-0.76557 3.52168,-1.62686 5.05292,-2.58389 1.79909,-1.11007 3.55996,-2.3733 5.28261,-3.78969 l -0.8613,13.43619 c -0.99533,0.65077 -2.12458,1.37809 -3.38775,2.18194 -1.26329,0.8039 -2.62222,1.56949 -4.0768,2.29679 -1.4164,0.68905 -2.90931,1.28238 -4.47873,1.78 -1.53123,0.45938 -3.1007,0.68905 -4.7084,0.68904 -2.87103,1e-5 -5.18695,-0.57418 -6.94777,-1.72259 -1.76091,-1.18665 -3.15812,-2.71784 -4.19164,-4.59357 -1.03358,-1.91396 -1.79918,-4.03848 -2.29678,-6.37357 -0.49767,-2.37332 -0.89961,-4.7658 -1.20581,-7.17745 l -0.91871,0 -10.27811,28.65238 c -0.53594,1.49291 -1.05272,2.737 -1.55033,3.73227 -0.45938,0.957 -0.93787,1.74173 -1.43549,2.35421 -0.49766,0.61247 -1.03357,1.05269 -1.60775,1.32065 -0.57421,0.22967 -1.20583,0.34451 -1.89485,0.34451 -1.56948,0 -2.83271,-0.32537 -3.78969,-0.97613 -0.957005,-0.68903 -1.703459,-1.58861 -2.239366,-2.69872 -0.497645,-1.14839 -0.842162,-2.43076 -1.033553,-3.84711 -0.153127,-1.45463 -0.229686,-2.94753 -0.229679,-4.47873"
         style="fill:#ffffff"
         id="path2995" />
      <path
         d="m 158.1371,1047.0333 c 2.4116,-10e-5 4.63182,-0.3829 6.66067,-1.1484 2.0288,-0.7657 3.77052,-1.761 5.22518,-2.9859 1.4546,-1.225 2.75611,-2.737 3.90454,-4.5361 1.18663,-1.7609 2.14363,-3.5409 2.87098,-5.34 0.72727,-1.7609 1.35889,-3.7132 1.89484,-5.8568 0.57416,-2.1054 0.99524,-4.0003 1.26324,-5.6846 0.26791,-1.646 0.47845,-3.3686 0.63161,-5.1677 0.0765,-0.7656 0.19136,-1.8566 0.34452,-3.273 0.45931,-4.9381 0.88039,-8.3067 1.26323,-10.1058 0.38275,-1.7992 1.09093,-3.04324 2.12453,-3.73227 1.64598,-1.11012 4.30642,-2.85185 7.98132,-5.22519 0.19135,-0.11484 0.4593,-0.2871 0.80387,-0.51677 1.91394,-1.49291 4.249,-3.61744 7.0052,-6.37358 2.71779,-2.79441 4.61264,-5.26345 5.68454,-7.40713 l -3.73228,-12.74715 c -5.70374,9.26371 -10.81407,15.599 -15.33103,19.00589 -1.26328,0.957 -2.44995,1.76087 -3.56002,2.41162 0.57415,-6.00991 0.99523,-10.89057 1.26323,-14.642 0.26792,-3.75139 0.82297,-7.15828 1.66517,-10.22069 0.88039,-3.06234 1.37802,-5.62708 1.49291,-7.69422 0.34447,-6.66063 0.28705,-10.5843 -0.17226,-11.77102 -0.268,-0.68899 -0.51682,-1.24404 -0.74645,-1.66517 -0.6508,-1.0335 -1.83747,-1.55028 -3.56002,-1.55033 l -2.52646,0.0574 c -0.49768,5e-5 -0.93789,-0.0191 -1.32065,-0.0574 -0.38284,-0.0382 -0.72735,-0.11479 -1.03355,-0.22968 -0.30628,-0.11478 -0.5551,-0.19134 -0.74646,-0.22968 -0.19143,-0.0765 -0.40197,-0.22962 -0.63161,-0.45935 -0.22972,-0.22963 -0.40198,-0.38275 -0.51678,-0.45936 -0.0766,-0.0765 -0.22971,-0.2679 -0.45936,-0.5742 -0.22971,-0.34446 -0.40197,-0.57414 -0.51677,-0.68903 -0.91875,-1.11006 -2.37338,-1.66511 -4.36389,-1.66517 -4.4022,6e-5 -8.93834,2.0863 -13.60845,6.25874 -3.21551,2.87103 -5.83767,6.25878 -7.86648,10.16327 -2.02884,3.86629 -4.03852,8.78523 -6.02906,14.75683 -2.18195,6.39274 -2.12453,11.98158 0.17226,16.76653 1.26322,2.67959 3.13893,4.91895 5.62712,6.71809 2.52645,1.79915 5.28259,2.69872 8.26842,2.69872 4.05763,0 8.23012,-2.04796 12.51747,-6.14389 l -1.14839,6.89035 c -2.41165,2.10538 -4.49789,4.05764 -6.25873,5.85684 -1.72261,1.8374 -3.9237,4.2681 -6.60326,7.2922 -1.30153,1.4547 -2.5839,3.0815 -3.84711,4.8807 -1.22497,1.8374 -2.12454,3.2538 -2.69872,4.2491 -0.53593,0.9952 -1.5312,2.7561 -2.98582,5.2826 -2.52647,4.5169 -3.63658,8.7851 -3.33034,12.8045 0.19139,2.1437 0.70817,4.0194 1.55033,5.6272 0.88043,1.6077 2.00968,2.8517 3.38776,3.7322 1.41634,0.9187 2.94752,1.5886 4.59356,2.0097 1.64602,0.4593 3.44516,0.689 5.39745,0.6891 m -1.43549,-77.74619 c 0.3445,-2.25847 2.33504,-6.56494 5.97164,-12.91941 3.36859,-5.97159 7.27311,-8.95741 11.71359,-8.95745 l -4.30647,19.12072 c -0.15315,3.33036 -0.8996,6.64156 -2.23936,9.93359 -1.72262,4.17251 -3.88542,6.25875 -6.48842,6.25874 -1.49293,10e-6 -2.69874,-0.80386 -3.61743,-2.41162 -1.41637,-2.48817 -1.76089,-6.16302 -1.03355,-11.02457 m 12.40263,39.16019 c -0.0383,0.5359 -0.15315,1.7608 -0.34452,3.6748 -0.19143,1.9523 -0.40196,3.5983 -0.63161,4.9381 -0.19143,1.3398 -0.45939,2.5647 -0.80388,3.6749 -0.57422,2.0671 -1.07186,3.7131 -1.49291,4.9381 -0.4211,1.2632 -0.8996,2.5455 -1.43549,3.8471 -0.49766,1.3014 -0.97615,2.2967 -1.43549,2.9858 -0.45938,0.689 -0.99529,1.3206 -1.60775,1.8948 -0.61249,0.6125 -1.28239,1.0336 -2.00968,1.2633 -0.68906,0.2296 -1.49293,0.3444 -2.41162,0.3445 -2.56476,-1e-4 -3.21552,-1.8183 -1.95227,-5.4549 1.53117,-4.3639 3.59827,-8.6704 6.20132,-12.9194 2.60299,-4.2108 5.24429,-7.2731 7.9239,-9.1871"
         style="fill:#ffffff"
         id="path2997" />
      <path
         d="m 262.124,979.68006 c -0.8805,1.22497 -2.06717,2.66045 -3.56001,4.30647 -1.4547,1.64604 -3.10072,3.21551 -4.93809,4.70841 -1.83748,1.49291 -3.80889,2.75614 -5.91422,3.78969 -2.10543,1.03356 -4.21082,1.55033 -6.31615,1.55033 -2.52651,0 -4.63189,-0.80387 -6.31616,-2.41162 -1.68435,-1.64603 -3.13898,-4.01937 -4.36389,-7.12003 -0.91875,1.07184 -2.048,2.16281 -3.38776,3.27292 -1.33982,1.11011 -2.81359,2.12452 -4.42131,3.04323 -1.56949,0.88044 -3.21552,1.60775 -4.93808,2.18195 -1.72261,0.5742 -3.4452,0.86129 -5.16777,0.86129 -1.83744,0 -3.63659,-0.36365 -5.39744,-1.09097 -1.7226,-0.76559 -3.25379,-1.83742 -4.59357,-3.2155 -1.33979,-1.41634 -2.41163,-3.11979 -3.21549,-5.11034 -0.80388,-2.02882 -1.20582,-4.30646 -1.20582,-6.83293 0,-2.87097 0.40194,-5.8185 1.20582,-8.84262 0.80386,-3.02407 2.04795,-6.29699 3.73227,-9.81875 1.6843,-3.5217 3.48344,-6.56494 5.39744,-9.12972 1.95225,-2.5647 4.07678,-4.80406 6.37358,-6.7181 2.29676,-1.91393 4.70838,-3.42598 7.23487,-4.53614 2.56471,-1.14834 5.16773,-1.72253 7.80906,-1.72259 0.8804,6e-5 1.56944,0.17231 2.06711,0.51677 0.4976,0.34458 0.89953,0.74652 1.20581,1.20582 0.34448,0.42113 0.66986,0.8422 0.97613,1.26323 0.3062,0.42113 0.689,0.72737 1.1484,0.91871 0.45931,0.19145 0.91867,0.32543 1.37807,0.40194 0.49759,0.0383 0.99523,0.0575 1.49291,0.0574 0.42103,5e-5 0.84211,5e-5 1.26323,0 0.45931,-0.0382 0.89953,-0.0574 1.32065,-0.0574 0.57415,5e-5 1.11006,0.0575 1.60775,0.17226 0.49759,0.11489 0.9378,0.36371 1.32065,0.74645 0.38275,0.38285 0.66984,0.91877 0.86129,1.60775 0.22963,0.68909 0.34447,1.62694 0.34452,2.81356 -5e-5,1.83747 -0.19145,3.88544 -0.5742,6.1439 -0.38284,2.22026 -0.80392,4.51704 -1.26323,6.89035 -0.4594,2.3351 -1.01446,4.99554 -1.66517,7.98133 -0.6508,2.98584 -0.97617,5.53144 -0.97613,7.6368 -4e-5,1.79917 0.15307,3.21552 0.45936,4.24905 0.34447,0.99529 1.05264,1.49293 2.12452,1.49291 0.80383,2e-5 1.64598,-0.19138 2.52647,-0.57419 0.88038,-0.42107 1.76081,-0.95698 2.6413,-1.60775 0.91866,-0.65074 1.81823,-1.37806 2.69872,-2.18195 0.91865,-0.84213 1.77995,-1.70343 2.58388,-2.58388 1.87565,-2.06708 3.77049,-4.40214 5.68454,-7.00519 l 2.75614,12.74715 m -49.03634,-4.53615 c -2e-5,0.95701 0.0574,1.89487 0.17226,2.81356 0.1531,0.88045 0.40192,1.68433 0.74646,2.41163 0.34449,0.68904 0.80385,1.26324 1.37807,1.72258 0.57417,0.42109 1.30149,0.63163 2.18194,0.63162 1.41633,10e-6 2.6987,-0.61246 3.84711,-1.83743 1.14837,-1.22493 2.14364,-2.6987 2.98582,-4.42131 0.84213,-1.72257 1.51202,-3.50257 2.00969,-5.34002 0.53588,-1.8374 0.8804,-3.36859 1.03355,-4.59357 l 4.30647,-18.77621 c -1.5695,5e-5 -3.10069,0.40199 -4.59357,1.20581 -1.49294,0.76564 -2.90928,1.81833 -4.24905,3.15808 -1.30153,1.33983 -2.50734,2.87102 -3.61743,4.59357 -1.11014,1.72262 -2.20111,3.84715 -3.27292,6.37358 -1.07185,2.52649 -1.83744,4.74671 -2.29678,6.66067 -0.4211,1.91401 -0.63164,3.71315 -0.63162,5.39744"
         style="fill:#ffffff"
         id="path2999" />
      <path
         d="m 257.87496,981.74717 c -10e-6,-2.52645 0.15311,-5.43571 0.45935,-8.72778 0.30623,-3.33032 0.68903,-6.96689 1.1484,-10.90973 0.45934,-3.98105 0.97612,-7.56021 1.55033,-10.73746 0.57418,-3.17717 1.12924,-5.89503 1.66516,-8.15359 0.42107,-1.76081 1.22494,-3.23458 2.41163,-4.42131 1.22493,-1.18661 2.87096,-1.77995 4.93808,-1.78 2.06709,5e-5 3.50258,0.63167 4.30647,1.89484 0.80385,1.26329 1.20579,2.9476 1.20582,5.05293 -3e-5,0.57424 -0.0575,1.35898 -0.17226,2.3542 -0.11487,0.95704 -0.26799,2.02887 -0.45936,3.2155 -0.15314,1.14844 -0.3254,2.35425 -0.51678,3.61744 -0.19142,1.22499 -0.38282,2.64133 -0.57419,4.24905 -0.15315,1.5695 -0.28712,2.75617 -0.40194,3.56001 -0.11486,0.76563 -0.17228,1.2824 -0.17226,1.55033 l 1.14839,0 c 0.22966,-0.42105 0.59331,-1.09094 1.09098,-2.00969 0.49761,-0.95695 1.0718,-2.31588 1.72258,-4.07679 0.65073,-1.76083 1.33977,-3.31115 2.06711,-4.65099 0.76556,-1.37802 1.47374,-2.67953 2.12452,-3.90453 0.65073,-1.26318 1.24406,-2.37329 1.78001,-3.33033 0.53589,-0.95695 0.93782,-1.66512 1.20581,-2.12453 1.22492,-2.06705 2.62213,-3.4834 4.19163,-4.24905 1.56943,-0.76554 3.31116,-1.14834 5.22519,-1.14839 1.91394,5e-5 3.42599,0.80393 4.53615,2.41162 1.14834,1.6078 1.72254,3.82802 1.72259,6.66067 -5e-5,0.42113 -0.0958,1.1293 -0.2871,2.12453 -0.15317,0.99532 -0.36371,2.18199 -0.63162,3.56001 -0.26801,1.37812 -0.57424,3.15812 -0.91871,5.34003 -0.30629,2.18198 -0.59339,4.13424 -0.8613,5.8568 -0.268,1.72261 -0.49768,3.42606 -0.68903,5.11034 -0.15317,1.68433 -0.22973,3.23466 -0.22968,4.65099 -5e-5,2.37336 0.28705,4.32563 0.86129,5.8568 0.61243,1.5312 1.55029,2.2968 2.81356,2.29678 0.45931,2e-5 1.11007,-0.17224 1.95227,-0.51677 1.26318,-0.45935 2.06705,-0.86128 2.41162,-1.20582 1.68426,-1.30149 2.56469,-1.93311 2.64131,-1.89484 0.11478,0.0383 1.39715,-0.7273 3.84711,-2.29679 3.06231,-1.95224 6.71803,-4.34472 10.96714,-7.17745 l -0.0574,12.86199 -2.87098,2.18195 c -0.22974,0.19141 -2.02889,1.18668 -5.39744,2.98582 -4.86158,2.60303 -7.90482,4.17249 -9.12972,4.70841 -2.98587,1.33979 -4.84243,2.10538 -5.5697,2.29678 -1.91403,0.61248 -3.92371,0.91871 -6.02906,0.91871 -2.10542,0 -3.88543,-1.51204 -5.34002,-4.53614 -1.41638,-3.06238 -2.12456,-7.52196 -2.12452,-13.37877 -4e-5,-2.29677 0.15308,-4.76581 0.45935,-7.40713 0.30621,-2.67955 0.689,-5.55053 1.1484,-8.61294 l -0.91872,0 -15.04393,29.85819 c -0.8039,1.60775 -1.66519,2.67958 -2.58389,3.2155 -0.95701,0.5742 -2.06712,0.86129 -3.33033,0.86129 -1.56949,0 -2.83272,-0.32537 -3.7897,-0.97613 -0.957,-0.68903 -1.70345,-1.58861 -2.23936,-2.69872 -0.49765,-1.14839 -0.84216,-2.43076 -1.03355,-3.84711 -0.15313,-1.45463 -0.22969,-2.94753 -0.22968,-4.47873"
         style="fill:#ffffff"
         id="path3001" />
      <path
         d="m 348.59793,981.51749 c -1.37811,1.26324 -3.10069,2.62217 -5.16776,4.07679 -2.02886,1.41636 -4.22994,2.73701 -6.60325,3.96195 -2.37338,1.18668 -4.80414,2.18195 -7.29229,2.98582 -2.44993,0.80388 -4.78499,1.20581 -7.00519,1.20581 -1.99056,0 -3.67487,-0.26795 -5.05293,-0.80387 -1.3398,-0.5742 -2.43077,-1.35893 -3.27292,-2.3542 -0.84216,-0.99527 -1.45463,-2.20108 -1.83742,-3.61744 -0.34453,-1.45462 -0.51679,-3.04323 -0.51678,-4.76583 -1e-5,-2.41161 0.26795,-5.22516 0.80387,-8.44068 1.07183,-6.20129 1.76086,-9.68474 2.06711,-10.45037 0.53591,-1.68427 1.60774,-5.41654 3.2155,-11.19682 1.3015,-4.8232 2.10537,-7.96213 2.41162,-9.41681 0.19139,-0.95694 0.7273,-1.81824 1.60775,-2.58388 0.80386,-0.68899 1.70343,-1.24404 2.69872,-1.66517 1.03353,-0.4593 2.08623,-0.78468 3.15808,-0.97614 1.11009,-0.22962 2.10536,-0.34446 2.98582,-0.34451 1.60772,5e-5 2.69869,0.30629 3.27292,0.91871 0.57416,0.57425 0.86126,1.35898 0.86129,2.3542 -3e-5,0.84221 -0.19143,2.06716 -0.5742,3.67486 -0.38282,1.56952 -0.86132,3.36866 -1.43549,5.39744 -0.57422,1.99059 -1.30153,4.40221 -2.18194,7.23487 -0.88046,2.79446 -1.60777,5.3592 -2.18195,7.69423 -0.57421,2.29681 -1.05271,4.55531 -1.43549,6.77551 -0.38281,2.18197 -0.57421,4.15337 -0.57419,5.91422 -2e-5,1.7226 0.19138,3.10067 0.57419,4.13421 0.38278,0.99529 1.16751,1.49292 2.35421,1.49291 1.37804,10e-6 2.90923,-0.47848 4.59357,-1.43549 1.68427,-0.95698 3.38772,-2.10537 5.11034,-3.44518 1.72255,-1.37805 3.40686,-2.7944 5.05292,-4.24905 1.64599,-1.4546 3.10062,-2.69869 4.36389,-3.73227 l 0,11.65618 m -25.66656,-60.17574 c -1e-5,-0.88036 0.19138,-1.87564 0.5742,-2.98582 0.38278,-1.11004 0.99525,-2.14359 1.83743,-3.10066 0.88041,-0.9952 2.0288,-1.81821 3.44517,-2.46904 1.45461,-0.68896 3.25375,-1.03348 5.39744,-1.03356 1.33977,8e-5 2.603,0.1532 3.7897,0.45936 1.18664,0.30632 2.22019,0.78481 3.10066,1.43549 0.8804,0.61255 1.56943,1.43557 2.0671,2.46904 0.53588,1.03363 0.80384,2.25858 0.80388,3.67486 -4e-5,1.30158 -0.21058,2.56481 -0.63162,3.78969 -0.42111,1.22502 -1.09101,2.31599 -2.00968,3.27292 -0.91875,0.95706 -2.08628,1.74179 -3.5026,2.3542 -1.3781,0.57426 -3.04327,0.86136 -4.99551,0.8613 -3.36864,6e-5 -5.85682,-0.78467 -7.46454,-2.35421 -1.60777,-1.60768 -2.41164,-3.7322 -2.41163,-6.37357"
         style="fill:#ffffff"
         id="path3003" />
      <path
         d="m 338.894,983.0104 c 0,-0.84214 0.15312,-1.53118 0.45936,-2.06711 0.30623,-0.57418 0.70817,-1.1101 1.20581,-1.60775 0.49763,-0.49762 1.07183,-0.99525 1.72258,-1.49291 0.65075,-0.5359 1.32065,-1.18665 2.00969,-1.95226 l 18.43169,-25.14979 c -0.68906,-0.30619 -1.28239,-0.59329 -1.78,-0.86129 -0.49766,-0.26792 -0.95702,-0.49759 -1.37808,-0.68904 -0.38281,-0.22963 -0.78475,-0.40189 -1.20581,-0.51677 -0.42109,-0.1148 -0.88045,-0.17222 -1.37807,-0.17226 -1.22497,4e-5 -2.23938,0.0192 -3.04324,0.0574 -0.80389,0.0383 -1.49292,0.1723 -2.0671,0.40193 -0.53593,0.22973 -1.03357,0.57424 -1.49291,1.03356 -0.42109,0.4594 -0.89959,1.11015 -1.43549,1.95226 -1.18668,1.83747 -2.18196,3.1964 -2.98582,4.0768 -0.80388,0.84219 -1.5312,1.26326 -2.18195,1.26323 -0.61248,3e-5 -1.05269,-0.26792 -1.32065,-0.80388 -0.22968,-0.57416 -0.34452,-1.32061 -0.34451,-2.23936 -1e-5,-0.38276 0.0191,-0.7847 0.0574,-1.20581 0.0383,-0.45932 0.0957,-0.91868 0.17225,-1.37807 0.57419,-3.3303 1.39721,-6.02901 2.46905,-8.09617 1.07182,-2.06705 2.25849,-3.65566 3.56001,-4.76583 1.33978,-1.14833 2.71785,-1.91393 4.13421,-2.29678 1.45462,-0.42102 2.79441,-0.63156 4.01938,-0.63161 0.91869,5e-5 1.8374,0.22973 2.75614,0.68903 0.91869,0.42113 1.81826,0.89963 2.69872,1.43549 0.91869,0.53597 1.8374,1.03361 2.75614,1.49291 0.95696,0.42113 1.9331,0.65081 2.9284,0.68904 0.76556,0.0383 1.4546,0.0575 2.0671,0.0574 0.65073,6e-5 1.24406,6e-5 1.78001,0 1.53116,6e-5 2.75611,-0.0191 3.67486,-0.0574 0.91867,-0.0765 1.60771,-0.15307 2.0671,-0.22968 0.4976,-0.0765 0.84212,-0.13393 1.03356,-0.17226 0.19135,-0.0765 0.34447,-0.11479 0.45935,-0.11484 1.33975,5e-5 2.29674,0.47855 2.87098,1.43549 0.61243,0.91876 0.91867,2.18199 0.91872,3.78969 -5e-5,1.30156 -0.11489,2.41167 -0.34452,3.33034 -0.0766,0.30628 -0.4594,0.70822 -1.14839,1.20581 -0.68908,0.4594 -1.83747,0.89962 -3.44518,1.32065 -0.4594,0.8422 -1.22499,2.02887 -2.29678,3.56002 -1.07187,1.53122 -2.31596,3.23467 -3.73228,5.11034 -1.3781,1.87574 -2.92843,4.00026 -4.65099,6.37358 -1.68433,2.37337 -3.21552,4.44047 -4.59356,6.20131 -1.33982,1.72261 -2.52649,3.23466 -3.56002,4.53615 -0.99529,1.26325 -1.66519,2.12454 -2.00969,2.58389 l -0.28709,1.14839 c 0.0383,10e-6 0.38277,0.13399 1.03355,0.40193 0.65073,0.26798 1.41633,0.57421 2.29678,0.91872 0.88041,0.30625 1.79913,0.59335 2.75614,0.86129 0.99525,0.26797 1.85654,0.40195 2.58389,0.40194 1.60772,1e-5 3.06234,-0.22967 4.36389,-0.68904 1.33975,-0.49762 2.5647,-1.1101 3.67485,-1.83742 1.14836,-0.7273 2.20105,-1.4929 3.15808,-2.29679 0.99523,-0.84213 1.93308,-1.62687 2.81356,-2.3542 0.91867,-0.7273 1.81824,-1.32063 2.69872,-1.78001 0.88039,-0.49761 1.7991,-0.74643 2.75614,-0.74645 0.72727,2e-5 1.37802,0.17228 1.95227,0.51677 0.61242,0.34454 1.11006,0.78476 1.49291,1.32065 0.42102,0.53594 0.72726,1.14841 0.91871,1.83743 0.22963,0.65077 0.34447,1.30153 0.34452,1.95227 -5e-5,1.11012 -0.42113,2.27765 -1.26323,3.50259 -0.84221,1.18669 -1.97146,2.35422 -3.38776,3.5026 -1.4164,1.1484 -3.06242,2.23937 -4.93808,3.27292 -1.87575,1.03355 -3.84716,1.95227 -5.91422,2.75614 -2.02886,0.76559 -4.11511,1.37807 -6.25874,1.83742 -2.10541,0.45936 -4.09596,0.68904 -5.97164,0.68904 -0.15314,0 -0.55508,-0.0766 -1.20581,-0.22968 -0.65078,-0.15312 -1.51207,-0.40194 -2.58388,-0.74645 -1.07185,-0.3828 -2.31594,-0.8613 -3.73228,-1.43549 -1.41636,-0.5742 -2.96669,-1.30151 -4.65098,-2.18195 -1.45465,0.45936 -2.71788,0.68904 -3.7897,0.68904 -1.1484,0 -2.14367,-0.1914 -2.98582,-0.5742 -0.84216,-0.42107 -1.55033,-0.97613 -2.12452,-1.66517 -0.53592,-0.68903 -0.93786,-1.47376 -1.20581,-2.3542 -0.26796,-0.88043 -0.40194,-1.81828 -0.40194,-2.81356"
         style="fill:#ffffff"
         id="path3005" />
      <path
         d="m 376.10191,983.0104 c 0,-0.84214 0.15312,-1.53118 0.45936,-2.06711 0.30624,-0.57418 0.70817,-1.1101 1.20581,-1.60775 0.49764,-0.49762 1.07183,-0.99525 1.72259,-1.49291 0.65075,-0.5359 1.32065,-1.18665 2.00969,-1.95226 l 18.43169,-25.14979 c -0.68906,-0.30619 -1.2824,-0.59329 -1.78001,-0.86129 -0.49766,-0.26792 -0.95701,-0.49759 -1.37807,-0.68904 -0.38282,-0.22963 -0.78475,-0.40189 -1.20581,-0.51677 -0.4211,-0.1148 -0.88045,-0.17222 -1.37807,-0.17226 -1.22497,4e-5 -2.23938,0.0192 -3.04324,0.0574 -0.80389,0.0383 -1.49292,0.1723 -2.06711,0.40193 -0.53593,0.22973 -1.03356,0.57424 -1.49291,1.03356 -0.42108,0.4594 -0.89958,1.11015 -1.43549,1.95226 -1.18668,1.83747 -2.18195,3.1964 -2.98581,4.0768 -0.80389,0.84219 -1.5312,1.26326 -2.18195,1.26323 -0.61248,3e-5 -1.0527,-0.26792 -1.32065,-0.80388 -0.22968,-0.57416 -0.34452,-1.32061 -0.34452,-2.23936 0,-0.38276 0.0191,-0.7847 0.0574,-1.20581 0.0383,-0.45932 0.0957,-0.91868 0.17226,-1.37807 0.57419,-3.3303 1.3972,-6.02901 2.46904,-8.09617 1.07183,-2.06705 2.2585,-3.65566 3.56002,-4.76583 1.33978,-1.14833 2.71785,-1.91393 4.13421,-2.29678 1.45461,-0.42102 2.7944,-0.63156 4.01937,-0.63161 0.9187,5e-5 1.83741,0.22973 2.75614,0.68903 0.91869,0.42113 1.81827,0.89963 2.69872,1.43549 0.91869,0.53597 1.83741,1.03361 2.75615,1.49291 0.95696,0.42113 1.93309,0.65081 2.9284,0.68904 0.76556,0.0383 1.45459,0.0575 2.0671,0.0574 0.65072,6e-5 1.24406,6e-5 1.78001,0 1.53115,6e-5 2.7561,-0.0191 3.67485,-0.0574 0.91868,-0.0765 1.60771,-0.15307 2.06711,-0.22968 0.49759,-0.0765 0.84211,-0.13393 1.03355,-0.17226 0.19136,-0.0765 0.34448,-0.11479 0.45936,-0.11484 1.33975,5e-5 2.29674,0.47855 2.87098,1.43549 0.61243,0.91876 0.91867,2.18199 0.91871,3.78969 -4e-5,1.30156 -0.11488,2.41167 -0.34452,3.33034 -0.0766,0.30628 -0.4594,0.70822 -1.14839,1.20581 -0.68908,0.4594 -1.83747,0.89962 -3.44517,1.32065 -0.4594,0.8422 -1.22499,2.02887 -2.29679,3.56002 -1.07187,1.53122 -2.31596,3.23467 -3.73227,5.11034 -1.37811,1.87574 -2.92843,4.00026 -4.65099,6.37358 -1.68434,2.37337 -3.21552,4.44047 -4.59357,6.20131 -1.33981,1.72261 -2.52648,3.23466 -3.56001,4.53615 -0.9953,1.26325 -1.66519,2.12454 -2.00969,2.58389 l -0.2871,1.14839 c 0.0383,10e-6 0.38278,0.13399 1.03356,0.40193 0.65073,0.26798 1.41632,0.57421 2.29678,0.91872 0.88041,0.30625 1.79912,0.59335 2.75614,0.86129 0.99525,0.26797 1.85654,0.40195 2.58388,0.40194 1.60772,1e-5 3.06235,-0.22967 4.36389,-0.68904 1.33976,-0.49762 2.56471,-1.1101 3.67486,-1.83742 1.14835,-0.7273 2.20104,-1.4929 3.15807,-2.29679 0.99524,-0.84213 1.93309,-1.62687 2.81357,-2.3542 0.91867,-0.7273 1.81824,-1.32063 2.69872,-1.78001 0.88039,-0.49761 1.7991,-0.74643 2.75614,-0.74645 0.72726,2e-5 1.37802,0.17228 1.95226,0.51677 0.61243,0.34454 1.11007,0.78476 1.49291,1.32065 0.42103,0.53594 0.72727,1.14841 0.91872,1.83743 0.22962,0.65077 0.34446,1.30153 0.34451,1.95227 -5e-5,1.11012 -0.42112,2.27765 -1.26323,3.50259 -0.8422,1.18669 -1.97145,2.35422 -3.38775,3.5026 -1.4164,1.1484 -3.06243,2.23937 -4.93809,3.27292 -1.87575,1.03355 -3.84715,1.95227 -5.91422,2.75614 -2.02886,0.76559 -4.1151,1.37807 -6.25873,1.83742 -2.10542,0.45936 -4.09596,0.68904 -5.97164,0.68904 -0.15315,0 -0.55508,-0.0766 -1.20581,-0.22968 -0.65078,-0.15312 -1.51208,-0.40194 -2.58389,-0.74645 -1.07185,-0.3828 -2.31594,-0.8613 -3.73227,-1.43549 -1.41637,-0.5742 -2.96669,-1.30151 -4.65099,-2.18195 -1.45464,0.45936 -2.71787,0.68904 -3.78969,0.68904 -1.1484,0 -2.14367,-0.1914 -2.98582,-0.5742 -0.84216,-0.42107 -1.55033,-0.97613 -2.12453,-1.66517 -0.53592,-0.68903 -0.93785,-1.47376 -1.20581,-2.3542 -0.26796,-0.88043 -0.40194,-1.81828 -0.40194,-2.81356"
         style="fill:#ffffff"
         id="path3007" />
      <path
         d="m 441.56024,994.66658 1.26324,-6.94777 c -2.06714,1.83743 -4.22994,3.33034 -6.48842,4.47872 -2.22025,1.11012 -4.38305,1.66517 -6.48841,1.66517 -1.83745,0 -3.63659,-0.36365 -5.39745,-1.09097 -1.7226,-0.76559 -3.25378,-1.83742 -4.59357,-3.2155 -1.33979,-1.41634 -2.41162,-3.11979 -3.21549,-5.11034 -0.80388,-2.02882 -1.20582,-4.30646 -1.20581,-6.83293 -10e-6,-3.33032 0.15311,-6.3927 0.45935,-9.18714 0.34452,-2.79439 0.91871,-6.22043 1.72259,-10.27811 0.80387,-4.05761 1.66516,-7.25397 2.58388,-9.58907 0.91871,-2.3733 1.9714,-4.76578 3.15808,-7.17745 0.88042,-1.72254 2.14365,-3.02405 3.78969,-3.90454 1.64602,-0.91865 3.25376,-1.37801 4.82325,-1.37807 1.33977,6e-5 2.48816,0.34458 3.44518,1.03356 0.95697,0.65081 1.43546,1.68436 1.43549,3.10065 -3e-5,0.42114 -0.0574,0.88049 -0.17226,1.37808 -0.0766,0.49768 -0.2297,1.0336 -0.45936,1.60774 -0.68906,1.76092 -1.37809,3.84716 -2.0671,6.25874 -0.65078,2.37339 -1.33982,5.58888 -2.06711,9.64649 -0.68905,4.01941 -1.18669,7.2349 -1.49291,9.6465 -0.30626,2.41164 -0.45937,4.53617 -0.45936,6.37357 -10e-6,0.95701 0.0574,1.89487 0.17226,2.81356 0.1531,0.88045 0.40192,1.68433 0.74646,2.41163 0.3445,0.68904 0.80385,1.26324 1.37807,1.72258 0.57417,0.42109 1.30149,0.63163 2.18194,0.63162 1.41633,10e-6 2.6987,-0.61246 3.84712,-1.83743 1.14836,-1.22493 2.14363,-2.6987 2.98582,-4.42131 0.84212,-1.72257 1.51201,-3.50257 2.00968,-5.34002 0.53589,-1.8374 0.8804,-3.36859 1.03355,-4.59357 l 4.59357,-21.47493 c 0.26792,-1.26318 0.80384,-2.41157 1.60775,-3.44517 0.76556,-0.99522 1.66513,-1.83738 2.69872,-2.52647 1.03351,-0.72726 2.10534,-1.26317 3.2155,-1.60775 1.11007,-0.34446 2.16276,-0.51672 3.15808,-0.51677 1.18662,5e-5 2.18189,0.26801 2.98582,0.80387 0.80382,0.49769 1.20576,1.30157 1.20581,2.41163 -5e-5,0.34457 -0.0575,0.7465 -0.17226,1.20581 -0.22973,0.99532 -0.51683,2.35425 -0.86129,4.07679 -0.34457,1.72263 -0.72737,3.6749 -1.1484,5.8568 -0.38284,2.18198 -0.88048,5.2635 -1.49291,9.24455 -0.61252,3.94285 -1.11016,7.12006 -1.49291,9.53166 -0.95703,5.66542 -1.93317,11.75189 -2.92839,18.25943 1.14834,-0.65075 2.39243,-1.45462 3.73227,-2.41162 1.33974,-0.95699 2.83265,-2.23936 4.47873,-3.84712 1.64597,-1.60773 3.4834,-3.61742 5.51228,-6.02905 2.02877,-2.44989 4.30641,-5.49312 6.83293,-9.12972 l 2.75614,12.74715 c -0.6891,1.18669 -1.56953,2.3925 -2.6413,3.61744 -1.14845,1.30152 -2.3734,2.56475 -3.67485,3.78969 -1.91405,1.76087 -3.29212,2.94754 -4.13421,3.56002 -0.26802,0.1914 -1.66523,1.30151 -4.19163,3.33033 -0.76565,0.65076 -3.29211,2.41162 -7.57939,5.28261 -1.0336,0.68902 -1.74177,1.93315 -2.12453,3.73225 -0.38284,1.8374 -0.82305,5.2252 -1.32065,10.1633 -0.15316,1.4163 -0.24886,2.5073 -0.2871,3.2729 -0.19144,1.7991 -0.42111,3.5217 -0.68903,5.1678 -0.268,1.6842 -0.66994,3.5791 -1.20581,5.6845 -0.53596,2.1436 -1.16757,4.0959 -1.89485,5.8568 -0.72735,1.7991 -1.68434,3.5791 -2.87098,5.34 -1.18671,1.7609 -2.50736,3.2538 -3.96195,4.4788 -1.41638,1.2631 -3.13897,2.2776 -5.16777,3.0432 -2.02885,0.7655 -4.24907,1.1483 -6.66067,1.1484 -1.95228,-1e-4 -3.77057,-0.2297 -5.45486,-0.689 -1.64604,-0.4212 -3.15809,-1.0911 -4.53615,-2.0097 -1.37808,-0.9188 -2.50733,-2.182 -3.38776,-3.7897 -0.88044,-1.5695 -1.39721,-3.4261 -1.55033,-5.5697 -0.30624,-4.0577 0.80387,-8.345 3.33034,-12.862 1.41634,-2.5265 2.41161,-4.2874 2.98582,-5.2826 0.57418,-0.957 1.47376,-2.3542 2.69872,-4.1916 1.22494,-1.7992 2.50731,-3.4261 3.84711,-4.8807 2.67957,-3.0241 4.88065,-5.4549 6.60326,-7.2923 1.76084,-1.83744 3.84708,-3.80884 6.25873,-5.91422 m 0.17226,13.89552 c -2.67961,1.914 -5.3209,4.9764 -7.9239,9.1872 -2.60304,4.2107 -4.67015,8.498 -6.20132,12.8619 -1.26324,3.6749 -0.63163,5.5123 1.89485,5.5123 0.91869,0 1.74171,-0.1149 2.46904,-0.3445 0.72729,-0.2297 1.39719,-0.6508 2.00969,-1.2632 0.61245,-0.5743 1.14837,-1.225 1.60775,-1.9523 0.45933,-0.6891 0.93782,-1.6843 1.43549,-2.9858 0.53589,-1.2633 0.99524,-2.5265 1.37807,-3.7897 0.42105,-1.225 0.93782,-2.871 1.55033,-4.9381 0.34448,-1.1101 0.61244,-2.3351 0.80387,-3.6748 0.22965,-1.3399 0.42105,-2.9859 0.5742,-4.9381 0.19136,-1.914 0.32534,-3.139 0.40193,-3.6749"
         style="fill:#ffffff"
         id="path3009" />
    </g>
  </g>
</svg>
